<svg viewBox="0 0 100 100" fill="none" xmlns="http://www.w3.org/2000/svg">
    <!-- Body -->
    <ellipse cx="50" cy="60" rx="35" ry="35" fill="#7B4B2A" />

    <!-- Belly -->
    <ellipse cx="50" cy="68" rx="22" ry="22" fill="#D4A574" />
    <ellipse cx="50" cy="72" rx="16" ry="16" fill="#E8C9A0" />

    <!-- Ear tufts -->
    <path d="M25 30 L30 45 L20 42 Z" fill="#7B4B2A" />
    <path d="M75 30 L70 45 L80 42 Z" fill="#7B4B2A" />

    <!-- Head -->
    <circle cx="50" cy="35" r="28" fill="#7B4B2A" />

    <!-- Face disc -->
    <circle cx="50" cy="38" r="22" fill="#E8D4B8" />

    <!-- Eyes -->
    <g>
        <!-- Left eye white -->
        <circle cx="38" cy="35" r="10" fill="white" />
        <!-- Right eye white -->
        <circle cx="62" cy="35" r="10" fill="white" />

        <!-- Left pupil -->
        <circle cx="39" cy="36" r="5" fill="#2C1810" />
        <!-- Right pupil -->
        <circle cx="61" cy="36" r="5" fill="#2C1810" />

        <!-- Eye shine -->
        <circle cx="40" cy="34" r="2" fill="white" />
        <circle cx="62" cy="34" r="2" fill="white" />
    </g>

    <!-- Beak -->
    <path d="M45 42 L50 52 L55 42 Z" fill="#F5A623" />

    <!-- Wings -->
    <ellipse cx="22" cy="60" rx="8" ry="18" fill="#6B4423" />
    <ellipse cx="78" cy="60" rx="8" ry="18" fill="#6B4423" />

    <!-- Feet -->
    <ellipse cx="40" cy="92" rx="8" ry="4" fill="#F5A623" />
    <ellipse cx="60" cy="92" rx="8" ry="4" fill="#F5A623" />
</svg>
